<?xml version="1.0" encoding="UTF-8"?>
<svg xmlns="http://www.w3.org/2000/svg" viewBox="0 0 1200 760" width="1200" height="760" preserveAspectRatio="xMidYMid meet">
  <title>Out of Eden Walk 中国段文化复刻路线粗点 · 文化复刻静态示意图</title>
  <desc>文化复刻 waypoints and generalized route only; not original GPS track; not for navigation; cultural replica. Not real-time road conditions; not for safety guidance. | 文化复刻粗点 + 概括路线;非原始 GPS 轨迹;非导航;不保证路况与开放状态。本数据为研究、写作与旅行规划参考;本数据不是 Paul Salopek 原始 GPS 轨迹，仅为文化复刻路线粗点。</desc>
  <style>
    .bg { fill: #fbf7ec; }
    .frame { fill: none; stroke: #d4c89a; stroke-width: 1; }
    .route-main { fill: none; stroke: #6b8e23; stroke-width: 2.5; stroke-linecap: round; stroke-linejoin: round; opacity: 0.85; }
    .route-seg { fill: none; stroke: #9caf6f; stroke-width: 1.4; stroke-dasharray: 4 3; opacity: 0.7; }
    .point { fill: #b8860b; stroke: #fff; stroke-width: 1.2; }
    .point-start { fill: #5d8a3a; stroke: #fff; stroke-width: 1.6; }
    .point-end { fill: #a8423a; stroke: #fff; stroke-width: 1.6; }
    .seg-label { fill: #2a3d1f; font: 600 11px sans-serif; }
    .point-label { fill: #6b7c5f; font: 9px sans-serif; }
    .start-label { fill: #5d8a3a; font: 700 12px sans-serif; }
    .end-label { fill: #a8423a; font: 700 12px sans-serif; }
    .title { fill: #2a3d1f; font: 700 16px sans-serif; }
    .subtitle { fill: #6b7c5f; font: 11px sans-serif; }
    .legend-text { fill: #2a3d1f; font: 10px sans-serif; }
    .disclaimer { fill: #c0392b; font: italic 11px sans-serif; }
  </style>
  <rect class="bg" x="0" y="0" width="1200" height="760"/>
  <rect class="frame" x="0.5" y="0.5" width="1199" height="759" fill="none"/>
  <line x1="168.6" y1="0" x2="168.6" y2="760" stroke="#d4c89a" stroke-width="0.5" stroke-dasharray="1 4" opacity="0.4"/>
  <line x1="365.4" y1="0" x2="365.4" y2="760" stroke="#d4c89a" stroke-width="0.5" stroke-dasharray="1 4" opacity="0.4"/>
  <line x1="562.2" y1="0" x2="562.2" y2="760" stroke="#d4c89a" stroke-width="0.5" stroke-dasharray="1 4" opacity="0.4"/>
  <line x1="759.0" y1="0" x2="759.0" y2="760" stroke="#d4c89a" stroke-width="0.5" stroke-dasharray="1 4" opacity="0.4"/>
  <line x1="955.8" y1="0" x2="955.8" y2="760" stroke="#d4c89a" stroke-width="0.5" stroke-dasharray="1 4" opacity="0.4"/>
  <line x1="0" y1="665.3" x2="1200" y2="665.3" stroke="#d4c89a" stroke-width="0.5" stroke-dasharray="1 4" opacity="0.4"/>
  <line x1="0" y1="493.8" x2="1200" y2="493.8" stroke="#d4c89a" stroke-width="0.5" stroke-dasharray="1 4" opacity="0.4"/>
  <line x1="0" y1="322.4" x2="1200" y2="322.4" stroke="#d4c89a" stroke-width="0.5" stroke-dasharray="1 4" opacity="0.4"/>
  <line x1="0" y1="151.0" x2="1200" y2="151.0" stroke="#d4c89a" stroke-width="0.5" stroke-dasharray="1 4" opacity="0.4"/>
  <g id="route-segments">
    <polyline class="route-seg" points="109.2,664.6 109.3,664.6 109.1,666.0 120.0,670.9 175.1,641.5"/>
    <polyline class="route-seg" points="174.0,638.6 166.8,627.2 177.8,601.1 175.7,593.6"/>
    <polyline class="route-seg" points="198.8,572.6 218.9,564.9 245.9,492.3"/>
    <polyline class="route-seg" points="277.2,491.7 286.7,494.5 299.1,479.4 337.2,459.8 334.8,448.0"/>
    <polyline class="route-seg" points="388.2,417.0 398.6,410.4 445.2,388.7 496.0,354.7"/>
    <polyline class="route-seg" points="520.5,345.0 526.0,319.9 542.1,268.1 580.4,282.8"/>
    <polyline class="route-seg" points="607.2,236.1 669.8,205.3 675.3,178.8 795.5,161.7"/>
    <polyline class="route-seg" points="806.8,156.2 814.0,154.2 814.4,153.8 813.6,145.0"/>
    <polyline class="route-seg" points="848.4,128.4 844.3,129.3 875.7,118.4"/>
    <polyline class="route-seg" points="1000.8,113.5 1090.9,89.1 1080.7,107.5 1064.1,120.5 1020.0,188.0 1022.8,188.7"/>
  </g>
  <g id="route-main">
    <polyline class="route-main" points="109.2,664.6 109.3,664.6 109.1,666.0 120.0,670.9 175.1,641.5 174.0,638.6 166.8,627.2 177.8,601.1 175.7,593.6 198.8,572.6 218.9,564.9 245.9,492.3 277.2,491.7 286.7,494.5 299.1,479.4 337.2,459.8 334.8,448.0 388.2,417.0 398.6,410.4 445.2,388.7 496.0,354.7 520.5,345.0 526.0,319.9 542.1,268.1 580.4,282.8 607.2,236.1 669.8,205.3 675.3,178.8 795.5,161.7 806.8,156.2 814.0,154.2 814.4,153.8 813.6,145.0 848.4,128.4 844.3,129.3 875.7,118.4 1000.8,113.5 1090.9,89.1 1080.7,107.5 1064.1,120.5 1020.0,188.0 1022.8,188.7"/>
  </g>
  <g id="points">
    <circle class="point-start" cx="109.2" cy="664.6" r="6"/>
    <circle class="point" cx="109.3" cy="664.6" r="3.2"/>
    <circle class="point" cx="109.1" cy="666.0" r="3.2"/>
    <circle class="point" cx="120.0" cy="670.9" r="3.2"/>
    <circle class="point" cx="175.1" cy="641.5" r="3.2"/>
    <circle class="point" cx="174.0" cy="638.6" r="3.2"/>
    <circle class="point" cx="166.8" cy="627.2" r="3.2"/>
    <circle class="point" cx="177.8" cy="601.1" r="3.2"/>
    <circle class="point" cx="175.7" cy="593.6" r="3.2"/>
    <circle class="point" cx="198.8" cy="572.6" r="3.2"/>
    <circle class="point" cx="218.9" cy="564.9" r="3.2"/>
    <circle class="point" cx="245.9" cy="492.3" r="3.2"/>
    <circle class="point" cx="277.2" cy="491.7" r="3.2"/>
    <circle class="point" cx="286.7" cy="494.5" r="3.2"/>
    <circle class="point" cx="299.1" cy="479.4" r="3.2"/>
    <circle class="point" cx="337.2" cy="459.8" r="3.2"/>
    <circle class="point" cx="334.8" cy="448.0" r="3.2"/>
    <circle class="point" cx="388.2" cy="417.0" r="3.2"/>
    <circle class="point" cx="398.6" cy="410.4" r="3.2"/>
    <circle class="point" cx="445.2" cy="388.7" r="3.2"/>
    <circle class="point" cx="496.0" cy="354.7" r="3.2"/>
    <circle class="point" cx="520.5" cy="345.0" r="3.2"/>
    <circle class="point" cx="526.0" cy="319.9" r="3.2"/>
    <circle class="point" cx="542.1" cy="268.1" r="3.2"/>
    <circle class="point" cx="580.4" cy="282.8" r="3.2"/>
    <circle class="point" cx="607.2" cy="236.1" r="3.2"/>
    <circle class="point" cx="669.8" cy="205.3" r="3.2"/>
    <circle class="point" cx="675.3" cy="178.8" r="3.2"/>
    <circle class="point" cx="795.5" cy="161.7" r="3.2"/>
    <circle class="point" cx="806.8" cy="156.2" r="3.2"/>
    <circle class="point" cx="814.0" cy="154.2" r="3.2"/>
    <circle class="point" cx="814.4" cy="153.8" r="3.2"/>
    <circle class="point" cx="813.6" cy="145.0" r="3.2"/>
    <circle class="point" cx="848.4" cy="128.4" r="3.2"/>
    <circle class="point" cx="844.3" cy="129.3" r="3.2"/>
    <circle class="point" cx="875.7" cy="118.4" r="3.2"/>
    <circle class="point" cx="1000.8" cy="113.5" r="3.2"/>
    <circle class="point" cx="1090.9" cy="89.1" r="3.2"/>
    <circle class="point" cx="1080.7" cy="107.5" r="3.2"/>
    <circle class="point" cx="1064.1" cy="120.5" r="3.2"/>
    <circle class="point" cx="1020.0" cy="188.0" r="3.2"/>
    <circle class="point-end" cx="1022.8" cy="188.7" r="6"/>
  </g>
  <g id="segment-labels">
    <text class="seg-label" x="124.5" y="661.5" text-anchor="middle">S01</text>
    <text class="seg-label" x="173.5" y="615.1" text-anchor="middle">S02</text>
    <text class="seg-label" x="221.2" y="543.3" text-anchor="middle">S03</text>
    <text class="seg-label" x="307.0" y="474.7" text-anchor="middle">S04</text>
    <text class="seg-label" x="432.0" y="392.7" text-anchor="middle">S05</text>
    <text class="seg-label" x="542.3" y="303.9" text-anchor="middle">S06</text>
    <text class="seg-label" x="687.0" y="195.5" text-anchor="middle">S07</text>
    <text class="seg-label" x="812.2" y="152.3" text-anchor="middle">S08</text>
    <text class="seg-label" x="856.1" y="125.4" text-anchor="middle">S09</text>
    <text class="seg-label" x="1046.5" y="134.5" text-anchor="middle">S10</text>
  </g>
  <g id="endpoint-labels">
    <text class="start-label" x="119.2" y="656.6">起点:云南西部 / 缅中边境附近</text>
    <text class="end-label" x="1032.8" y="180.7">终点:黄海 / 大连近海粗点</text>
  </g>
  <g id="header">
    <text class="title" x="60" y="34">Out of Eden Walk 中国段文化复刻路线粗点 · 文化复刻静态示意图</text>
    <text class="subtitle" x="60" y="52">约 6000-6700 公里 · 2021 秋 (云南西部重启) → 2023 冬 (抵达黄海附近) → 2024.6 (补齐大连港) → 2024.8 (Goodbye to China) · 42 个粗点 · 10 段路线 · v1.4.5</text>
  </g>
  <g id="legend" transform="translate(60, 680)">
    <rect class="frame" x="0" y="0" width="540" height="64" rx="4" fill="#fff" opacity="0.92"/>
    <circle class="point-start" cx="14" cy="14" r="6"/>
    <text class="legend-text" x="28" y="18">起点</text>
    <circle class="point" cx="120" cy="14" r="3.2"/>
    <text class="legend-text" x="132" y="18">文化复刻粗点(42 个)</text>
    <circle class="point-end" cx="370" cy="14" r="6"/>
    <text class="legend-text" x="384" y="18">终点</text>
    <line x1="14" y1="38" x2="40" y2="38" class="route-main"/>
    <text class="legend-text" x="50" y="42">主路线(概括连接)</text>
    <line x1="200" y1="38" x2="240" y2="38" class="route-seg"/>
    <text class="legend-text" x="250" y="42">分段路线(S01-S10)</text>
    <text class="disclaimer" x="0" y="60">⚠ 文化复刻粗点 · 非原始 GPS 轨迹 / not original GPS · 非导航 / not for navigation · 不保证路况与开放状态</text>
  </g>
  <g id="footer">
    <text class="legend-text" x="1140" y="740" text-anchor="end">Generated by render-route-map-svg.py · 行旅图谱 v1.4.5 · 2026-07-04</text>
  </g>
</svg>
